<?xml version="1.0" standalone="no"?>
<!DOCTYPE svg PUBLIC "-//W3C//DTD SVG 20010904//EN"
 "http://www.w3.org/TR/2001/REC-SVG-20010904/DTD/svg10.dtd">
<svg version="1.0" xmlns="http://www.w3.org/2000/svg"
 width="512.000000pt" height="512.000000pt" viewBox="0 0 512.000000 512.000000"
 preserveAspectRatio="xMidYMid meet">

<g transform="translate(0.000000,512.000000) scale(0.100000,-0.100000)"
fill="#000000" stroke="none">
<path d="M2345 5109 c-113 -11 -270 -44 -355 -76 -289 -108 -464 -314 -549
-648 -39 -150 -52 -282 -58 -560 -6 -297 5 -416 53 -588 127 -454 471 -823
895 -961 169 -54 289 -54 458 0 424 138 768 507 895 961 48 172 59 291 53 588
-8 411 -47 612 -158 825 -116 222 -322 366 -614 429 -182 38 -410 50 -620 30z
m-116 -898 c18 -27 54 -70 80 -95 226 -210 616 -279 1111 -195 69 11 130 22
135 22 18 3 18 -354 0 -478 -41 -282 -147 -508 -328 -701 -140 -148 -286 -247
-468 -316 -77 -29 -94 -32 -199 -32 -105 0 -122 3 -199 32 -182 69 -328 168
-468 316 -239 255 -343 550 -343 977 l0 174 40 62 c105 160 280 255 505 272
55 5 101 9 101 10 1 0 16 -21 33 -48z"/>
<path d="M1789 3815 c-90 -15 -117 -28 -129 -61 -16 -42 -12 -114 9 -148 10
-17 21 -49 25 -71 22 -141 40 -189 82 -232 29 -28 59 -47 96 -58 73 -22 229
-30 311 -16 173 30 252 105 313 296 l22 70 42 0 42 0 22 -70 c76 -236 205
-318 475 -302 131 8 193 28 245 80 42 43 60 91 82 232 4 22 15 54 25 71 35 57
22 161 -23 185 -63 35 -372 50 -561 29 -63 -7 -115 -21 -184 -50 -52 -22 -108
-40 -123 -40 -15 0 -71 18 -123 40 -69 29 -121 43 -184 50 -119 13 -371 11
-464 -5z m366 -85 c126 -12 192 -27 229 -53 28 -19 28 -22 22 -81 -8 -86 -65
-198 -116 -232 -57 -38 -125 -55 -220 -55 -188 1 -265 64 -277 225 -8 126 27
181 128 196 76 11 120 11 234 0z m1105 -18 c50 -25 65 -61 64 -162 -1 -173
-78 -240 -274 -241 -95 0 -163 17 -220 55 -52 34 -109 149 -117 233 -5 57 -4
61 23 80 81 57 432 80 524 35z"/>
<path d="M1815 2351 c-53 -24 -583 -312 -760 -414 -280 -160 -333 -202 -411
-324 -103 -160 -200 -444 -265 -770 l-22 -112 28 -57 c36 -74 156 -194 270
-270 316 -210 761 -333 1400 -386 194 -16 816 -16 1010 0 637 53 1084 176
1396 384 118 78 237 197 274 272 l27 56 -17 92 c-74 411 -193 723 -332 878
-29 32 -89 81 -132 109 -225 144 -981 554 -1022 554 -17 0 -55 -19 -101 -50
-97 -67 -198 -117 -310 -153 -50 -16 -99 -37 -109 -46 -10 -9 -53 -101 -95
-205 -43 -104 -81 -189 -84 -189 -3 0 -41 85 -84 189 -42 104 -85 196 -95 205
-10 9 -59 30 -109 46 -110 35 -212 86 -307 150 -88 60 -101 64 -150 41z m875
-1187 c0 -16 -147 -521 -156 -536 -9 -14 -84 -9 -90 6 -3 8 29 134 72 280 l79
266 47 0 c37 0 48 -4 48 -16z m-352 -139 c1 -22 -1 -45 -5 -50 -5 -6 -59 -33
-121 -60 -62 -27 -109 -52 -105 -56 5 -4 53 -26 108 -50 55 -23 106 -47 113
-52 13 -10 17 -93 4 -101 -5 -3 -89 33 -188 79 l-179 84 -3 43 -3 43 173 82
c95 44 180 80 188 79 10 -1 16 -14 18 -41z m645 -37 l178 -82 -3 -45 -3 -45
-179 -82 c-99 -46 -184 -80 -188 -78 -13 8 -9 91 5 101 6 5 63 31 125 58 l113
48 -118 50 c-65 28 -121 56 -125 61 -10 14 -10 80 -1 89 10 11 9 11 196 -75z"/>
</g>
</svg>
